<svg width="95" height="110" viewBox="0 0 95 110" fill="none" xmlns="http://www.w3.org/2000/svg">
<path d="M47.5097 23.2681L74.9399 39.0517V70.7738L47.5871 86.6543L20.1761 70.9096V39.2068L47.5097 23.2681ZM47.5097 0L37.4506 5.81703L10.0591 21.7557L0 27.5727V82.5824L10.0591 88.3994L37.4893 104.183L47.5484 110L57.6074 104.183L84.9409 88.2831L95 82.4661V27.3788L84.9409 21.5618L57.53 5.81703L47.471 0H47.5097Z" fill="white"/>
<path d="M45.246 58.9668C45.246 57.9525 45.4551 57.1208 45.8734 56.4716C46.2917 55.8022 46.9002 55.0719 47.6988 54.2808C48.2502 53.7331 48.6589 53.2766 48.9251 52.9115C49.1913 52.526 49.3244 52.1203 49.3244 51.6943C49.3244 51.106 49.0867 50.6395 48.6114 50.2946C48.1551 49.9295 47.5561 49.7469 46.8146 49.7469C46.0541 49.7469 45.3601 49.9396 44.7326 50.325C44.1242 50.7105 43.6298 51.248 43.2496 51.9378L39 49.5035C39.7796 48.0834 40.8823 46.9779 42.3084 46.1867C43.7344 45.3956 45.4551 45 47.4706 45C49.7332 45 51.549 45.5071 52.918 46.5214C54.306 47.5154 55 48.9152 55 50.7206C55 51.5523 54.8669 52.2928 54.6007 52.9419C54.3345 53.5708 54.0113 54.1083 53.631 54.5546C53.2698 54.9806 52.7944 55.4675 52.205 56.0152C51.5585 56.6035 51.0832 57.1107 50.779 57.5367C50.4748 57.9424 50.3226 58.4191 50.3226 58.9668H45.246ZM47.7843 67C46.8526 67 46.0826 66.6957 45.4742 66.0871C44.8657 65.4583 44.5615 64.6976 44.5615 63.805C44.5615 62.8921 44.8562 62.1415 45.4456 61.5533C46.0541 60.965 46.8336 60.6708 47.7843 60.6708C48.735 60.6708 49.5146 60.965 50.123 61.5533C50.7314 62.1415 51.0357 62.8921 51.0357 63.805C51.0357 64.6976 50.7314 65.4583 50.123 66.0871C49.5146 66.6957 48.735 67 47.7843 67Z" fill="white"/>
</svg>
