<svg width="22" height="21" viewBox="0 0 22 21" fill="none" xmlns="http://www.w3.org/2000/svg">
<path d="M20.8668 0.386719L12.3159 6.7376L13.8972 2.99067L20.8668 0.386719Z" fill="#DB5168"/>
<path fill-rule="evenodd" clip-rule="evenodd" d="M20.9041 0.366194C20.9143 0.384996 20.9092 0.408459 20.892 0.421222L12.3411 6.7721C12.3255 6.78365 12.3041 6.78337 12.2889 6.7714C12.2737 6.75943 12.2683 6.73875 12.2758 6.7209L13.8571 2.97397C13.8617 2.96307 13.8706 2.95456 13.8817 2.95042L20.8513 0.346474C20.8714 0.338983 20.8939 0.347391 20.9041 0.366194ZM13.9291 3.02444L12.4163 6.60919L20.5971 0.533207L13.9291 3.02444Z" fill="#DB5168"/>
<path d="M1.12451 0.386719L9.60668 6.79776L8.10275 2.99067L1.12451 0.386719Z" fill="#DC4A64"/>
<path fill-rule="evenodd" clip-rule="evenodd" d="M1.08734 0.366043C1.09761 0.347344 1.12004 0.33901 1.14003 0.346468L8.11826 2.95042C8.12966 2.95467 8.13873 2.96356 8.1432 2.97489L9.64713 6.78198C9.6542 6.79989 9.6485 6.82032 9.63317 6.83197C9.61783 6.84363 9.59662 6.84366 9.58125 6.83204L1.09909 0.421005C1.08208 0.408142 1.07707 0.384741 1.08734 0.366043ZM1.38561 0.529834L9.51096 6.67119L8.0703 3.02425L1.38561 0.529834Z" fill="#DC4A64"/>
<path d="M17.7886 15.1094L15.5112 18.5985L20.384 19.9391L21.7848 15.1867L17.7886 15.1094Z" fill="#DC4A64"/>
<path fill-rule="evenodd" clip-rule="evenodd" d="M17.7526 15.0859C17.7607 15.0735 17.7746 15.0661 17.7894 15.0664L21.7856 15.1438C21.799 15.144 21.8115 15.1505 21.8194 15.1613C21.8273 15.1721 21.8298 15.186 21.826 15.1989L20.4252 19.9513C20.4186 19.9738 20.3951 19.9868 20.3726 19.9806L15.4998 18.6399C15.4866 18.6363 15.4759 18.6265 15.471 18.6137C15.4662 18.6009 15.4677 18.5865 15.4752 18.575L17.7526 15.0859ZM17.8116 15.1528L15.5794 18.5727L20.3547 19.8865L21.7276 15.2286L17.8116 15.1528Z" fill="#DC4A64"/>
<path d="M0.224121 15.1867L1.61633 19.9391L6.48906 18.5985L4.21168 15.1094L0.224121 15.1867Z" fill="#DC4A64"/>
<path fill-rule="evenodd" clip-rule="evenodd" d="M4.20987 15.0664C4.22468 15.0661 4.23859 15.0735 4.24669 15.0859L6.52407 18.575C6.53157 18.5865 6.53313 18.6009 6.52827 18.6137C6.52341 18.6265 6.51271 18.6363 6.49949 18.6399L1.62675 19.9806C1.60414 19.9868 1.58071 19.9737 1.57412 19.9512L0.181909 15.1988C0.178146 15.186 0.180585 15.1721 0.188507 15.1613C0.196428 15.1505 0.208927 15.144 0.222312 15.1438L4.20987 15.0664ZM0.280187 15.2286L1.64471 19.8865L6.41993 18.5727L4.18774 15.1528L0.280187 15.2286Z" fill="#DC4A64"/>
<path d="M6.21379 9.21274L4.85596 11.2667L9.69431 11.4815L9.52243 6.28223L6.21379 9.21274Z" fill="#DC4A64"/>
<path fill-rule="evenodd" clip-rule="evenodd" d="M9.53845 6.24276C9.55374 6.24934 9.56386 6.26417 9.5644 6.28081L9.73628 11.4801C9.73668 11.4921 9.73206 11.5037 9.72355 11.5121C9.71503 11.5205 9.70339 11.525 9.69143 11.5245L4.85308 11.3096C4.83761 11.3089 4.82372 11.3 4.81669 11.2862C4.80967 11.2724 4.8106 11.2559 4.81914 11.243L6.17697 9.18905C6.17904 9.18591 6.18151 9.18307 6.18432 9.18058L9.49297 6.25006C9.50543 6.23902 9.52315 6.23618 9.53845 6.24276ZM6.24554 9.24116L4.93265 11.2271L9.64886 11.4365L9.48153 6.37499L6.24554 9.24116Z" fill="#DC4A64"/>
<path d="M15.7778 9.21332L12.4262 6.22266L12.3145 11.4821L17.1442 11.2673L15.7778 9.21332Z" fill="#DC4A64"/>
<path fill-rule="evenodd" clip-rule="evenodd" d="M12.41 6.18228C12.4254 6.17559 12.4432 6.17845 12.4558 6.18962L15.8074 9.18029C15.8101 9.18273 15.8125 9.1855 15.8145 9.18855L17.181 11.2425C17.1896 11.2554 17.1905 11.2719 17.1835 11.2857C17.1765 11.2996 17.1626 11.3085 17.1471 11.3092L12.3173 11.5241C12.3055 11.5246 12.2939 11.5202 12.2854 11.5119C12.2769 11.5036 12.2722 11.4921 12.2725 11.4802L12.3842 6.22077C12.3845 6.204 12.3946 6.18897 12.41 6.18228ZM12.4681 6.31584L12.3594 11.4362L17.0673 11.2267L15.746 9.24074L12.4681 6.31584Z" fill="#DC4A64"/>
<path d="M6.48779 18.5971L9.39252 17.1791L6.88311 15.2197L6.48779 18.5971Z" fill="#DC4A64"/>
<path fill-rule="evenodd" clip-rule="evenodd" d="M6.86753 15.1791C6.88186 15.1731 6.8983 15.1753 6.91053 15.1849L9.41995 17.1443C9.43163 17.1534 9.43779 17.1679 9.43624 17.1826C9.4347 17.1974 9.42567 17.2103 9.41236 17.2168L6.50762 18.6348C6.4935 18.6416 6.47674 18.6403 6.46392 18.6312C6.4511 18.6221 6.44427 18.6068 6.44609 18.5911L6.84141 15.2138C6.84322 15.1983 6.8532 15.1851 6.86753 15.1791ZM6.91788 15.2997L6.54059 18.523L9.31287 17.1697L6.91788 15.2997Z" fill="#DC4A64"/>
<path d="M12.5981 17.1791L15.5115 18.5971L15.1076 15.2197L12.5981 17.1791Z" fill="#DC4A64"/>
<path fill-rule="evenodd" clip-rule="evenodd" d="M15.1231 15.1791C15.1374 15.185 15.1474 15.1983 15.1493 15.2136L15.5532 18.591C15.555 18.6066 15.5482 18.622 15.5354 18.6311C15.5226 18.6403 15.5058 18.6417 15.4917 18.6348L12.5784 17.2168C12.565 17.2103 12.556 17.1974 12.5544 17.1827C12.5529 17.1679 12.559 17.1534 12.5707 17.1443L15.0801 15.1849C15.0924 15.1753 15.1088 15.1731 15.1231 15.1791ZM12.6779 17.1696L15.4585 18.523L15.073 15.2995L12.6779 17.1696Z" fill="#DC4A64"/>
<path d="M15.5129 18.5957L12.5996 17.1777L12.8316 19.077L12.8059 19.8762L15.5129 18.5957Z" fill="#E67D8A"/>
<path fill-rule="evenodd" clip-rule="evenodd" d="M12.5737 17.1437C12.5865 17.1346 12.6033 17.1332 12.6174 17.1401L15.5308 18.5581C15.5456 18.5653 15.555 18.5804 15.5549 18.5969C15.5548 18.6135 15.5453 18.6285 15.5303 18.6355L12.8233 19.916C12.8097 19.9224 12.7938 19.9213 12.7813 19.9131C12.7688 19.9049 12.7615 19.8908 12.7619 19.8758L12.7876 19.0799L12.556 17.1839C12.5541 17.1683 12.5609 17.1529 12.5737 17.1437ZM12.6509 17.2519L12.8733 19.0728C12.8736 19.0749 12.8737 19.0771 12.8736 19.0793L12.8501 19.8083L15.4126 18.5962L12.6509 17.2519Z" fill="#DB5269"/>
<path d="M6.48779 18.5957L9.19487 19.8762L9.17768 19.077L9.39253 17.1777L6.48779 18.5957Z" fill="#E67D8A"/>
<path fill-rule="evenodd" clip-rule="evenodd" d="M9.41779 17.1436C9.43061 17.1527 9.43747 17.168 9.43571 17.1835L9.22119 19.0799L9.23831 19.8763C9.23863 19.8912 9.23123 19.9051 9.21873 19.9132C9.20624 19.9213 9.19044 19.9224 9.17698 19.916L6.46991 18.6355C6.45498 18.6285 6.44541 18.6135 6.44531 18.597C6.44521 18.5805 6.45459 18.5653 6.46943 18.5581L9.37416 17.1401C9.38826 17.1332 9.40498 17.1346 9.41779 17.1436ZM6.58748 18.5961L9.1509 19.8086L9.13521 19.0789C9.13517 19.077 9.13525 19.075 9.13547 19.0731L9.34152 17.2517L6.58748 18.5961Z" fill="#DB5269"/>
<path d="M9.23842 13.9651L6.81494 13.2518L8.52512 12.4697L9.23842 13.9651Z" fill="#F8C1BD"/>
<path fill-rule="evenodd" clip-rule="evenodd" d="M8.50775 12.4307C8.52908 12.4209 8.5543 12.4301 8.5644 12.4512L9.27769 13.9466C9.28499 13.9619 9.28261 13.98 9.27161 13.9929C9.2606 14.0059 9.24304 14.0111 9.22677 14.0063L6.8033 13.293C6.7861 13.2879 6.77385 13.2727 6.77257 13.2548C6.77129 13.237 6.78125 13.2202 6.79756 13.2127L8.50775 12.4307ZM6.93789 13.243L9.15867 13.8967L8.50503 12.5264L6.93789 13.243Z" fill="#F8C1BD"/>
<path d="M12.7529 13.9651L13.4662 12.4697L15.185 13.2518L12.7529 13.9651Z" fill="#F8C1BD"/>
<path fill-rule="evenodd" clip-rule="evenodd" d="M13.4279 12.4512C13.438 12.4301 13.4632 12.4209 13.4845 12.4306L15.2033 13.2127C15.2196 13.2201 15.2296 13.2369 15.2283 13.2548C15.2271 13.2727 15.2148 13.288 15.1976 13.293L12.7655 14.0063C12.7492 14.0111 12.7317 14.0058 12.7207 13.9929C12.7097 13.98 12.7073 13.9619 12.7146 13.9466L13.4279 12.4512ZM13.4873 12.5263L12.8336 13.8968L15.0626 13.2431L13.4873 12.5263Z" fill="#F8C1BD"/>
<path d="M6.4888 18.5956L6.90131 15.1064L4.21143 15.1838L6.4888 18.5956Z" fill="#DA4A61"/>
<path fill-rule="evenodd" clip-rule="evenodd" d="M6.93302 15.0774C6.94145 15.0867 6.94545 15.0991 6.94399 15.1115L6.53148 18.6006C6.52937 18.6185 6.51633 18.6332 6.49883 18.6373C6.48133 18.6415 6.46306 18.6344 6.45307 18.6194L4.17569 15.2076C4.16701 15.1946 4.16608 15.178 4.17325 15.1641C4.18042 15.1502 4.19457 15.1413 4.21019 15.1408L6.90008 15.0635C6.91256 15.0631 6.92459 15.0682 6.93302 15.0774ZM4.29027 15.2245L6.45982 18.4747L6.8528 15.1508L4.29027 15.2245Z" fill="#DA4A61"/>
<path d="M15.1001 15.1064L15.5126 18.5956L17.79 15.1838L15.1001 15.1064Z" fill="#DA4A61"/>
<path fill-rule="evenodd" clip-rule="evenodd" d="M15.0684 15.0774C15.0768 15.0682 15.0888 15.0631 15.1013 15.0635L17.7912 15.1408C17.8068 15.1413 17.821 15.1502 17.8282 15.1641C17.8353 15.178 17.8344 15.1946 17.8257 15.2076L15.5483 18.6194C15.5383 18.6344 15.5201 18.6415 15.5026 18.6373C15.4851 18.6332 15.472 18.6185 15.4699 18.6006L15.0574 15.1115C15.056 15.0991 15.06 15.0867 15.0684 15.0774ZM15.1486 15.1508L15.5416 18.4747L17.7111 15.2245L15.1486 15.1508Z" fill="#DA4A61"/>
<path d="M17.1447 11.2666L12.3149 11.4814L12.7618 13.9651L13.4751 12.4697L15.1939 13.2518L17.1447 11.2666Z" fill="#DA4A61"/>
<path fill-rule="evenodd" clip-rule="evenodd" d="M17.1844 11.2491C17.1916 11.2652 17.1882 11.2841 17.1758 11.2967L15.225 13.2819C15.2124 13.2948 15.193 13.2984 15.1766 13.2909L13.4962 12.5263L12.8011 13.9836C12.7931 14.0004 12.7751 14.0101 12.7566 14.0077C12.7381 14.0052 12.7233 13.991 12.72 13.9727L12.2731 11.4891C12.2709 11.4769 12.2741 11.4643 12.2819 11.4546C12.2896 11.4449 12.3011 11.4391 12.3135 11.4385L17.1433 11.2237C17.1609 11.2229 17.1772 11.233 17.1844 11.2491ZM12.3664 11.5222L12.781 13.8261L13.4368 12.4512C13.4469 12.4301 13.4721 12.4209 13.4934 12.4306L15.1848 13.2002L17.038 11.3144L12.3664 11.5222Z" fill="#DA4A61"/>
<path d="M6.81536 13.2518L8.53414 12.4697L9.23884 13.9651L9.69431 11.4814L4.85596 11.2666L6.81536 13.2518Z" fill="#DA4A61"/>
<path fill-rule="evenodd" clip-rule="evenodd" d="M4.81718 11.2492C4.82436 11.233 4.84069 11.2229 4.85835 11.2237L9.69671 11.4385C9.70912 11.4391 9.72068 11.445 9.72842 11.4547C9.73616 11.4644 9.73931 11.477 9.73707 11.4892L9.28159 13.9728C9.27823 13.9912 9.26339 14.0053 9.24488 14.0077C9.22637 14.0101 9.20842 14.0003 9.20046 13.9834L8.51384 12.5264L6.83365 13.2909C6.81725 13.2984 6.79793 13.2948 6.78527 13.282L4.82587 11.2968C4.81345 11.2842 4.81 11.2653 4.81718 11.2492ZM4.96399 11.3144L6.82536 13.2002L8.51684 12.4306C8.53823 12.4209 8.56348 12.4302 8.5735 12.4514L9.22119 13.8258L9.64365 11.5222L4.96399 11.3144Z" fill="#DA4A61"/>
<path d="M4.85596 11.2666L6.88412 15.2198L6.81536 13.2518L4.85596 11.2666Z" fill="#DC4A64"/>
<path fill-rule="evenodd" clip-rule="evenodd" d="M4.83028 11.2328C4.84747 11.2203 4.87115 11.2223 4.88606 11.2374L6.84546 13.2226C6.85303 13.2303 6.85744 13.2405 6.85782 13.2513L6.92657 15.2193C6.92727 15.2394 6.91392 15.2573 6.89445 15.2624C6.87497 15.2674 6.85458 15.2583 6.8454 15.2404L4.81724 11.2872C4.80756 11.2683 4.8131 11.2452 4.83028 11.2328ZM5.0214 11.4969L6.83396 15.0298L6.77252 13.271L5.0214 11.4969Z" fill="#DC4A64"/>
<path d="M15.1943 13.2518L15.1084 15.2198L17.1452 11.2666L15.1943 13.2518Z" fill="#DC4A64"/>
<path fill-rule="evenodd" clip-rule="evenodd" d="M17.1693 11.2318C17.1866 11.2442 17.1921 11.2674 17.1824 11.2863L15.1456 15.2395C15.1364 15.2574 15.1159 15.2665 15.0964 15.2613C15.0769 15.2561 15.0636 15.2381 15.0645 15.2179L15.1504 13.2499C15.1509 13.2393 15.1553 13.2292 15.1627 13.2217L17.1135 11.2365C17.1284 11.2213 17.1521 11.2193 17.1693 11.2318ZM15.2356 13.2701L15.1589 15.0261L16.9762 11.4989L15.2356 13.2701Z" fill="#DC4A64"/>
<path d="M9.69327 11.4814L9.23779 13.9651L9.80499 16.8956L9.9339 13.0369L9.69327 11.4814Z" fill="#DC4A64"/>
<path fill-rule="evenodd" clip-rule="evenodd" d="M9.69436 11.4385C9.71532 11.4388 9.73302 11.4542 9.73622 11.4749L9.97685 13.0304C9.97726 13.033 9.97742 13.0357 9.97733 13.0384L9.84842 16.897C9.84769 16.9189 9.83066 16.9367 9.80886 16.9384C9.78706 16.9401 9.76745 16.9252 9.76329 16.9037L9.1961 13.9732C9.19508 13.968 9.19505 13.9626 9.19602 13.9573L9.65149 11.4737C9.65528 11.4531 9.67339 11.4382 9.69436 11.4385ZM9.28201 13.9649L9.77525 16.5133L9.89131 13.0395L9.69016 11.7393L9.28201 13.9649Z" fill="#DC4A64"/>
<path d="M12.315 11.4814L12.083 13.0283L12.1861 16.8956L12.7619 13.9651L12.315 11.4814Z" fill="#DC4A64"/>
<path fill-rule="evenodd" clip-rule="evenodd" d="M12.3149 11.4385C12.3359 11.4382 12.3541 11.4531 12.3578 11.4738L12.8047 13.9575C12.8056 13.9627 12.8056 13.9681 12.8046 13.9734L12.2288 16.9039C12.2246 16.9254 12.2049 16.9402 12.183 16.9384C12.1612 16.9366 12.1443 16.9186 12.1437 16.8967L12.0405 13.0295C12.0405 13.027 12.0406 13.0245 12.041 13.022L12.273 11.4751C12.2762 11.4543 12.2939 11.4388 12.3149 11.4385ZM12.3194 11.7455L12.1266 13.031L12.2192 16.5067L12.7187 13.9647L12.3194 11.7455Z" fill="#DC4A64"/>
<path d="M12.7623 13.9633L12.1865 16.8938L12.599 17.1774L15.1084 15.218L15.1944 13.25L12.7623 13.9633Z" fill="#DB5168"/>
<path fill-rule="evenodd" clip-rule="evenodd" d="M15.2209 13.2162C15.2318 13.2247 15.2379 13.238 15.2373 13.2519L15.1514 15.2199C15.1508 15.2324 15.1448 15.2441 15.1349 15.2519L12.6255 17.2113C12.6107 17.2228 12.5901 17.2234 12.5747 17.2128L12.1622 16.9292C12.1481 16.9195 12.1411 16.9023 12.1444 16.8855L12.7202 13.955C12.7232 13.9393 12.7348 13.9266 12.7502 13.9221L15.1823 13.2088C15.1956 13.2049 15.21 13.2076 15.2209 13.2162ZM12.7994 13.9972L12.2341 16.8744L12.5974 17.1241L15.0664 15.1963L15.1488 13.3081L12.7994 13.9972Z" fill="#DB5168"/>
<path d="M6.81543 13.25L6.88418 15.218L9.3936 17.1774L9.8061 16.8938L9.23891 13.9633L6.81543 13.25Z" fill="#DB5168"/>
<path fill-rule="evenodd" clip-rule="evenodd" d="M6.78909 13.216C6.8 13.2076 6.81432 13.2049 6.82756 13.2088L9.25104 13.9221C9.26645 13.9266 9.27804 13.9394 9.28109 13.9551L9.84829 16.8856C9.85154 16.9024 9.84453 16.9195 9.83045 16.9292L9.41794 17.2128C9.40249 17.2234 9.38193 17.2228 9.36715 17.2113L6.85774 15.2519C6.84772 15.244 6.84168 15.2322 6.84124 15.2195L6.77249 13.2515C6.77201 13.2377 6.77818 13.2245 6.78909 13.216ZM6.86045 13.308L6.92643 15.1965L9.39521 17.1241L9.75857 16.8743L9.20169 13.9971L6.86045 13.308Z" fill="#DB5168"/>
<path d="M12.8043 19.8772L12.8301 19.0779L12.6152 18.8889H9.37533L9.17768 19.0779L9.19486 19.8772L6.48779 18.5967L7.43312 19.3701L9.34955 20.7022H12.641L14.566 19.3701L15.5114 18.5967L12.8043 19.8772Z" fill="#E87485"/>
<path fill-rule="evenodd" clip-rule="evenodd" d="M6.45196 18.5737C6.46357 18.5554 6.48703 18.5486 6.50666 18.5578L9.15091 19.8086L9.13521 19.0789C9.13495 19.0668 9.13976 19.0552 9.14847 19.0469L9.34613 18.8578C9.35413 18.8502 9.36477 18.8459 9.37583 18.8459H12.6157C12.6262 18.8459 12.6363 18.8497 12.6441 18.8566L12.859 19.0457C12.8686 19.0542 12.8739 19.0665 12.8735 19.0793L12.85 19.8083L15.4935 18.5578C15.5131 18.5486 15.5366 18.5554 15.5482 18.5737C15.5598 18.5921 15.5559 18.6162 15.5391 18.6299L14.5938 19.4034C14.5929 19.4041 14.5919 19.4048 14.591 19.4055L12.666 20.7375C12.6588 20.7425 12.6502 20.7452 12.6415 20.7452H9.35005C9.34128 20.7452 9.33273 20.7425 9.32553 20.7375L7.40909 19.4054C7.40817 19.4048 7.40727 19.4041 7.4064 19.4034L6.46107 18.6299C6.44427 18.6162 6.44036 18.5921 6.45196 18.5737ZM6.78685 18.7854L7.45952 19.3358L9.36352 20.6592H12.6281L14.5407 19.3358L15.2133 18.7854L12.8232 19.916C12.8096 19.9224 12.7937 19.9213 12.7812 19.9131C12.7687 19.9049 12.7614 19.8908 12.7618 19.8758L12.787 19.0968L12.5995 18.9318H9.39307L9.22154 19.0959L9.23832 19.8762C9.23864 19.8911 9.23123 19.9051 9.21874 19.9132C9.20624 19.9213 9.19045 19.9224 9.17699 19.916L6.78685 18.7854Z" fill="#E3707F"/>
<path d="M12.5981 17.1781L12.1856 16.8945H9.80509L9.39258 17.1781L9.17773 19.0774L9.37539 18.8883H12.6153L12.8301 19.0774L12.5981 17.1781Z" fill="#C93A52"/>
<path fill-rule="evenodd" clip-rule="evenodd" d="M9.78172 16.8591C9.78889 16.8542 9.79737 16.8516 9.80607 16.8516H12.1866C12.1953 16.8516 12.2038 16.8542 12.2109 16.8591L12.6234 17.1427C12.6336 17.1497 12.6402 17.1607 12.6417 17.1729L12.8738 19.0722C12.8759 19.0899 12.8669 19.1071 12.8512 19.1154C12.8354 19.1237 12.8161 19.1214 12.8027 19.1096L12.6001 18.9313H9.39361L9.20841 19.1084C9.19534 19.1209 9.17584 19.1239 9.15963 19.1159C9.14342 19.1078 9.13398 19.0905 9.13602 19.0725L9.35086 17.1733C9.35226 17.1609 9.35896 17.1498 9.36922 17.1427L9.78172 16.8591ZM9.81941 16.9375L9.43405 17.2024L9.23475 18.9643L9.34667 18.8573C9.35467 18.8496 9.36531 18.8453 9.37637 18.8453H12.6163C12.6267 18.8453 12.6368 18.8492 12.6447 18.8561L12.7748 18.9706L12.5588 17.2026L12.1732 16.9375H9.81941Z" fill="#C4384D"/>
<path d="M21.2279 7.1501L21.9584 3.6438L20.8669 0.386719L12.5996 6.52275L15.7793 9.21264L20.274 10.5275L21.2708 9.36733L20.8411 9.05795L21.5287 8.43059L20.9958 8.01809L21.6834 7.49386L21.2279 7.1501Z" fill="#EA7588"/>
<path fill-rule="evenodd" clip-rule="evenodd" d="M20.8788 0.345727C20.892 0.349853 20.9023 0.360018 20.9067 0.373067L21.9981 3.63015C22.0005 3.63737 22.001 3.64511 21.9994 3.65256L21.2745 7.13221L21.7083 7.45956C21.719 7.46766 21.7253 7.48031 21.7253 7.49375C21.7254 7.5072 21.7191 7.51988 21.7084 7.52803L21.0654 8.01835L21.554 8.39662C21.564 8.40438 21.5701 8.41618 21.5706 8.42886C21.5711 8.44153 21.566 8.45378 21.5566 8.46233L20.9082 9.054L21.295 9.33245C21.3047 9.33949 21.3111 9.3503 21.3125 9.36225C21.314 9.3742 21.3103 9.3862 21.3025 9.39533L20.3056 10.5555C20.2946 10.5683 20.2771 10.5735 20.2609 10.5687L15.7663 9.25388C15.7605 9.25219 15.7552 9.24932 15.7506 9.24544L12.5709 6.55556C12.5609 6.54708 12.5553 6.5345 12.5557 6.52138C12.5561 6.50827 12.5625 6.49607 12.573 6.48825L20.8403 0.352216C20.8514 0.344013 20.8657 0.341601 20.8788 0.345727ZM12.6678 6.52495L15.7992 9.17395L20.2584 10.4785L21.2068 9.37484L20.8151 9.09282C20.8046 9.08525 20.798 9.07335 20.7973 9.06043C20.7965 9.0475 20.8016 9.03493 20.8112 9.0262L21.461 8.43329L20.9686 8.05206C20.958 8.04389 20.9518 8.03128 20.9519 8.01793C20.9519 8.00458 20.9582 7.99201 20.9688 7.98392L21.6113 7.49404L21.201 7.1844C21.1877 7.17439 21.1814 7.15762 21.1848 7.14134L21.9129 3.64642L20.844 0.456509L12.6678 6.52495Z" fill="#EA7588"/>
<path d="M0.0439453 3.6438L0.774425 7.1501L0.310356 7.49386L0.997867 8.01809L0.47364 8.43059L1.16115 9.05795L0.731456 9.36733L1.71975 10.5275L6.21435 9.21264L9.39409 6.52275L1.12677 0.386719L0.0439453 3.6438Z" fill="#EA7588"/>
<path fill-rule="evenodd" clip-rule="evenodd" d="M1.11287 0.345742C1.12601 0.341595 1.14034 0.344003 1.15141 0.352216L9.41872 6.48825C9.42926 6.49607 9.43565 6.50827 9.43606 6.52138C9.43648 6.5345 9.43088 6.54708 9.42087 6.55556L6.24113 9.24544C6.23655 9.24932 6.2312 9.25219 6.22544 9.25388L1.73084 10.5687C1.71458 10.5735 1.69705 10.5683 1.68607 10.5554L0.69777 9.39519C0.689985 9.38605 0.686378 9.37407 0.687823 9.36216C0.689267 9.35024 0.695631 9.33947 0.705373 9.33245L1.09211 9.054L0.4437 8.46233C0.434374 8.45382 0.429262 8.44164 0.429723 8.42903C0.430183 8.41641 0.43617 8.40463 0.446092 8.39682L0.926726 8.01862L0.283326 7.52803C0.272583 7.51984 0.266318 7.50707 0.266412 7.49356C0.266506 7.48005 0.272947 7.46737 0.283803 7.45933L0.725774 7.13195L0.000903204 3.65256C-0.000643353 3.64514 -0.000197908 3.63744 0.00219431 3.63024L1.08502 0.373164C1.08937 0.360087 1.09973 0.349889 1.11287 0.345742ZM1.14785 0.456597L0.0873968 3.64637L0.815516 7.14134C0.818935 7.15775 0.812497 7.17465 0.799026 7.18463L0.380898 7.49436L1.02294 7.98392C1.03351 7.99198 1.03976 8.00447 1.03986 8.01776C1.03996 8.03105 1.03391 8.04364 1.02346 8.05186L0.539069 8.43302L1.18914 9.0262C1.1987 9.03493 1.20382 9.0475 1.20307 9.06043C1.20232 9.07335 1.19579 9.08525 1.18528 9.09282L0.793425 9.37495L1.73343 10.4784L6.19258 9.17395L9.32398 6.52495L1.14785 0.456597Z" fill="#EA7588"/>
<path d="M20.2733 10.5258L15.7787 9.21094L17.1451 11.2649L15.1084 15.2181L17.7897 15.1837H21.7858L20.2733 10.5258Z" fill="#DB5168"/>
<path fill-rule="evenodd" clip-rule="evenodd" d="M15.7441 9.18548C15.7548 9.17094 15.7735 9.16463 15.7908 9.1697L20.2854 10.4846C20.299 10.4886 20.3098 10.499 20.3142 10.5125L21.8267 15.1704C21.831 15.1835 21.8287 15.1978 21.8206 15.209C21.8125 15.2201 21.7996 15.2267 21.7859 15.2267H17.7897L15.109 15.261C15.0939 15.2612 15.0798 15.2535 15.0719 15.2407C15.0639 15.2278 15.0633 15.2118 15.0702 15.1984L17.0954 11.2677L15.7429 9.23474C15.7329 9.21971 15.7334 9.20003 15.7441 9.18548ZM15.8798 9.28528L17.1809 11.2411C17.1896 11.2541 17.1905 11.2707 17.1834 11.2846L15.1793 15.1742L17.7897 15.1407L21.7267 15.1407L20.2395 10.5607L15.8798 9.28528Z" fill="#DB5168"/>
<path d="M6.21357 9.21094L1.71897 10.5258L0.223633 15.1837H4.21119L6.88389 15.2181L4.85573 11.2649L6.21357 9.21094Z" fill="#DB5168"/>
<path fill-rule="evenodd" clip-rule="evenodd" d="M6.24815 9.18543C6.25886 9.19994 6.25936 9.21959 6.24942 9.23464L4.90544 11.2676L6.92213 15.1985C6.92901 15.2119 6.92836 15.2279 6.92042 15.2407C6.91248 15.2535 6.89841 15.2612 6.88334 15.261L4.2112 15.2267H0.223634C0.209906 15.2267 0.197004 15.2201 0.188915 15.209C0.180827 15.1979 0.178525 15.1836 0.182721 15.1706L1.67806 10.5127C1.68242 10.4991 1.69322 10.4886 1.70691 10.4846L6.20151 9.1697C6.21882 9.16464 6.23744 9.17092 6.24815 9.18543ZM1.75291 10.5606L0.282558 15.1407H4.21175L6.81309 15.1742L4.81751 11.2845C4.81042 11.2707 4.81134 11.2541 4.81989 11.2412L6.11302 9.28513L1.75291 10.5606Z" fill="#DB5168"/>
<path d="M12.3145 11.4829L12.5981 6.52427L13.9044 2.99219H8.10352L9.3926 6.52427L9.69339 11.4829L9.79651 13.047L9.8051 16.8971H12.1856L12.2028 13.047L12.3145 11.4829Z" fill="#DB5168"/>
<path fill-rule="evenodd" clip-rule="evenodd" d="M8.06928 2.96756C8.07732 2.95606 8.09047 2.94922 8.10449 2.94922H13.9054C13.9194 2.94922 13.9326 2.9561 13.9406 2.96763C13.9487 2.97917 13.9505 2.99391 13.9457 3.00709L12.6416 6.53315L12.3584 11.4854L12.3584 11.486L12.2467 13.0487L12.2296 16.8973C12.2295 16.9209 12.2102 16.9401 12.1866 16.9401H9.80608C9.78239 16.9401 9.76317 16.9209 9.76311 16.8972L9.75452 13.0485L9.65149 11.4858L9.65147 11.4855L9.35106 6.53312L8.06413 3.00692C8.05932 2.99374 8.06124 2.97905 8.06928 2.96756ZM8.16592 3.03516L9.43394 6.50954C9.43537 6.51344 9.43622 6.51753 9.43647 6.52167L9.73724 11.4801L9.73725 11.4803L9.84037 13.0442C9.84043 13.0451 9.84046 13.046 9.84046 13.0469L9.84896 16.8541H12.1438L12.1608 13.0468C12.1608 13.0459 12.1608 13.0449 12.1609 13.044L12.2726 11.4805L12.2726 11.4799L12.5562 6.52182C12.5564 6.51756 12.5573 6.51337 12.5588 6.50937L13.8437 3.03516H8.16592Z" fill="#DB5168"/>
</svg>
