<svg viewBox="0 0 346 122" fill="none" xmlns="http://www.w3.org/2000/svg">
<path d="M279.7 119.906V121.406H280.517L280.96 120.72L279.7 119.906ZM313.3 67.9V66.4H312.483L312.04 67.086L313.3 67.9ZM323.7 67.9V69.4H324.57L325.002 68.645L323.7 67.9ZM343.5 33.3L344.802 34.045L345.233 33.2919L344.795 32.5429L343.5 33.3ZM326.495 1.24291C326.077 0.527743 325.158 0.286952 324.443 0.705083C323.728 1.12321 323.487 2.04193 323.905 2.75709L326.495 1.24291ZM0 121.406H279.7V118.406H0V121.406ZM280.96 120.72L314.56 68.714L312.04 67.086L278.44 119.092L280.96 120.72ZM313.3 69.4H323.7V66.4H313.3V69.4ZM325.002 68.645L344.802 34.045L342.198 32.555L322.398 67.155L325.002 68.645ZM344.795 32.5429L326.495 1.24291L323.905 2.75709L342.205 34.0571L344.795 32.5429Z" fill="white"/>
</svg>
