<svg width="62" height="26" viewBox="0 0 62 26" fill="none" xmlns="http://www.w3.org/2000/svg">
<path d="M16.0018 2.34722C17.1372 0.782407 18.529 0 20.2138 0H60.6118C61.7838 0 62.2233 0.481482 61.8937 1.47454C61.7838 1.77546 61.6373 2.07639 61.4175 2.37731L59.7328 4.72454C59.0369 5.6875 58.1212 6.37963 56.9492 6.80093C56.3998 6.98148 55.9237 7.10185 55.4842 7.10185H20.1039C19.3347 7.10185 18.6022 7.49306 17.9796 8.30556C17.8697 8.45602 17.7965 8.60648 17.7598 8.72685C17.5767 9.23843 17.7965 9.47917 18.4191 9.47917H52.5175C54.2756 9.47917 54.8982 10.2014 54.4221 11.6458C54.2389 12.1574 54.0192 12.6088 53.7262 13L46.0348 23.6227C45.0093 25.037 43.5809 25.8495 41.8229 26H1.38821C0.216192 26 -0.223315 25.5185 0.106316 24.5255C0.216193 24.2245 0.362695 23.9236 0.582448 23.6227L5.71003 16.5509C6.73555 15.1366 8.16394 14.3241 9.92197 14.1736H42.7751C43.5443 14.1736 44.2768 13.7824 44.8994 13C45.0093 12.8495 45.0825 12.6991 45.1192 12.5486C45.2657 12.0671 45.0825 11.8264 44.4965 11.8264H12.9253C11.1306 11.8264 10.4714 11.1042 10.9475 9.68982C11.094 9.29861 11.3504 8.84722 11.7166 8.30556L16.0018 2.34722Z" fill="white"/>
</svg>
