<svg width="378" height="196" viewBox="0 0 378 196" fill="none" xmlns="http://www.w3.org/2000/svg">
<path d="M279.032 194V195.5H279.935L280.358 194.702L279.032 194ZM345.872 67.6947V66.1947H344.969L344.546 66.9931L345.872 67.6947ZM356.247 67.6947V69.1947H357.117L357.549 68.4401L356.247 67.6947ZM376 33.2025L377.302 33.9479L377.733 33.1944L377.295 32.445L376 33.2025ZM359.038 1.24249C358.62 0.527465 357.701 0.286965 356.986 0.705324C356.271 1.12368 356.031 2.04248 356.449 2.75751L359.038 1.24249ZM0 195.5H279.032V192.5H0V195.5ZM280.358 194.702L347.198 68.3963L344.546 66.9931L277.706 193.298L280.358 194.702ZM345.872 69.1947H356.247V66.1947H345.872V69.1947ZM357.549 68.4401L377.302 33.9479L374.698 32.4571L354.946 66.9493L357.549 68.4401ZM377.295 32.445L359.038 1.24249L356.449 2.75751L374.705 33.96L377.295 32.445Z" fill="white"/>
</svg>
