<svg width="440" height="68" viewBox="0 0 440 68" fill="none" xmlns="http://www.w3.org/2000/svg">
<path fill-rule="evenodd" clip-rule="evenodd" d="M96.4949 0.996094V20.7102H38.8688C37.4116 20.7102 36.0941 20.8442 34.9069 21.0959C33.6937 21.3531 32.6998 21.6993 31.8953 22.1024C31.4828 22.3091 31.1747 22.5095 30.9467 22.6889C31.178 22.8774 31.4874 23.0882 31.8973 23.3086C32.7104 23.6887 33.7051 24.0192 34.9069 24.274C36.0941 24.5257 37.4116 24.6596 38.8688 24.6596H62.4799C67.5529 24.6596 72.3522 25.1447 76.8693 26.1302C81.3956 27.0786 85.4221 28.4193 88.9076 30.1933C92.4163 31.9244 95.3619 34.0652 97.5776 36.7127C99.9132 39.4093 101.349 42.638 101.349 46.3279C101.349 50.0219 99.9099 53.2537 97.5697 55.9522C95.3569 58.5659 92.4147 60.7049 88.9076 62.4624C85.4289 64.2056 81.4062 65.5467 76.8789 66.5234C72.359 67.5104 67.5564 67.9961 62.4799 67.9961H6.5815V48.282H62.4799C63.9371 48.282 65.2546 48.148 66.4419 47.8963C67.6701 47.6359 68.6328 47.301 69.3711 46.931C69.8017 46.7153 70.1221 46.5112 70.3577 46.3328C70.1355 46.171 69.8344 45.9872 69.4311 45.7952L69.3698 45.7661L69.3096 45.7343C68.5918 45.3557 67.6509 45.0158 66.4419 44.7595C65.2546 44.5078 63.9371 44.3738 62.4799 44.3738H38.8688C33.7908 44.3738 28.987 43.8878 24.4659 42.9002C19.9918 41.923 15.9799 40.5834 12.4613 38.8501L12.441 38.8401L12.4208 38.8298C8.96178 37.0665 6.04302 34.9326 3.79722 32.3508L3.78943 32.3418L3.78169 32.3328C1.4427 29.6095 0 26.3635 0 22.6643C0 18.9607 1.44627 15.7217 3.79722 13.0191C6.04893 10.4305 8.97528 8.30782 12.4411 6.57105C15.9664 4.8045 19.9855 3.4483 24.4659 2.46962C28.987 1.48208 33.7908 0.996094 38.8688 0.996094H96.4949ZM76.2188 62.6532C80.5516 61.7188 84.3086 60.4545 87.4897 58.8605C90.7256 57.2389 93.2485 55.3563 95.0584 53.2126C96.9231 51.0688 97.8555 48.7739 97.8555 46.3279C97.8555 43.8818 96.9231 41.5869 95.0584 39.4432C93.2485 37.272 90.7256 35.3893 87.4897 33.7953C84.3086 32.1737 80.5516 30.9095 76.2188 30.0025C71.9408 29.068 67.3612 28.6008 62.4799 28.6008H38.8688C37.2234 28.6008 35.6877 28.4497 34.2617 28.1473C32.8358 27.845 31.5743 27.4328 30.4774 26.9106C29.4353 26.3609 28.6126 25.7288 28.0093 25.0142C27.406 24.2721 27.1044 23.4888 27.1044 22.6643C27.1044 21.8398 27.406 21.0703 28.0093 20.3557C28.6126 19.6411 29.4353 19.0227 30.4774 18.5005C31.5743 17.9508 32.8358 17.5248 34.2617 17.2225C35.6877 16.9202 37.2234 16.769 38.8688 16.769H93.0017V4.93727H38.8688C33.9875 4.93727 29.4079 5.40449 25.1299 6.33894C20.8519 7.27339 17.095 8.55139 13.8591 10.1729C10.678 11.767 8.15512 13.6359 6.29036 15.7796C4.4256 17.9234 3.49322 20.2183 3.49322 22.6643C3.49322 25.1104 4.4256 27.419 6.29036 29.5902C8.15512 31.734 10.678 33.6166 13.8591 35.2382C17.095 36.8322 20.8519 38.0965 25.1299 39.0309C29.4079 39.9654 33.9875 40.4326 38.8688 40.4326H62.4799C64.1253 40.4326 65.661 40.5838 67.087 40.8861C68.513 41.1884 69.747 41.6144 70.7891 42.1641C71.886 42.6863 72.7361 43.3046 73.3394 44.0192C73.9427 44.7338 74.2444 45.5034 74.2444 46.3279C74.2444 47.1524 73.9427 47.9219 73.3394 48.6365C72.7361 49.3511 71.886 49.9832 70.7891 50.5329C69.747 51.0551 68.513 51.4673 67.087 51.7697C65.661 52.072 64.1253 52.2231 62.4799 52.2231H10.0747V64.0549H62.4799C67.3612 64.0549 71.9408 63.5877 76.2188 62.6532ZM132.084 67.9961H101.487V0.996094H132.084V67.9961ZM230.695 52.5708L230.687 52.5779C227.868 54.9524 224.568 57.0829 220.819 58.9902L220.81 58.9949L220.801 58.9994C217.038 60.8853 212.878 62.491 208.336 63.8283C203.785 65.1681 198.918 66.2014 193.739 66.9348L193.733 66.9356L193.727 66.9364C188.585 67.6443 183.233 67.9961 177.673 67.9961H138.639V0.996094H177.673C183.234 0.996094 188.588 1.36179 193.733 2.09781C198.913 2.80363 203.782 3.82326 208.336 5.1639C212.881 6.50192 217.043 8.12276 220.811 10.0388C224.564 11.9205 227.871 14.0545 230.696 16.4632C233.536 18.8571 235.834 21.5469 237.48 24.5687C238.158 25.7634 238.713 26.9982 239.139 28.2697V0.996094H269.654V40.4326C269.654 40.8264 269.767 41.4114 270.474 42.2591C271.353 43.2445 272.649 44.236 274.49 45.1583C276.336 46.0836 278.566 46.8566 281.211 47.4445C283.885 47.999 286.736 48.282 289.772 48.282C292.813 48.282 295.637 47.9981 298.251 47.4445C300.959 46.855 303.214 46.0808 305.055 45.1583C306.909 44.2292 308.158 43.2425 308.962 42.2903L308.989 42.2586L309.016 42.2276C309.793 41.3467 309.89 40.7707 309.89 40.4326V0.996094H340.488V15.7753C341.037 14.8032 341.696 13.8837 342.448 13.0191C344.7 10.4305 347.627 8.30782 351.092 6.57105C354.618 4.8045 358.637 3.4483 363.117 2.46962C367.638 1.48208 372.442 0.996094 377.52 0.996094H435.146V20.7102H377.52C376.063 20.7102 374.745 20.8442 373.558 21.0959C372.345 21.3531 371.351 21.6993 370.547 22.1024C370.134 22.3091 369.826 22.5095 369.598 22.6889C369.829 22.8774 370.139 23.0882 370.549 23.3087C371.362 23.6888 372.357 24.0192 373.558 24.274C374.745 24.5257 376.063 24.6596 377.52 24.6596H401.131C406.204 24.6596 411.004 25.1447 415.521 26.1303C420.047 27.0788 424.074 28.4196 427.56 30.1937C431.068 31.9247 434.013 34.0654 436.229 36.7127C438.564 39.4093 440 42.638 440 46.3279C440 50.0221 438.561 53.2541 436.221 55.9526C434.008 58.5662 431.066 60.705 427.559 62.4624C424.08 64.2057 420.057 65.5468 415.53 66.5235C411.01 67.5105 406.208 67.9961 401.131 67.9961H345.233V48.282H401.131C402.588 48.282 403.906 48.148 405.093 47.8963C406.321 47.6359 407.284 47.301 408.022 46.931C408.453 46.7153 408.773 46.5112 409.009 46.3328C408.787 46.171 408.486 45.9873 408.082 45.7952L408.021 45.7661L407.961 45.7343C407.243 45.3557 406.302 45.0158 405.093 44.7595C403.906 44.5078 402.588 44.3738 401.131 44.3738H377.52C372.442 44.3738 367.638 43.8878 363.117 42.9002C358.643 41.923 354.631 40.5834 351.113 38.8501L351.092 38.8401L351.072 38.8298C347.613 37.0665 344.694 34.9326 342.448 32.3508L342.441 32.3418L342.433 32.3328C341.688 31.465 341.033 30.5441 340.488 29.5724V40.4326C340.488 44.9445 338.752 48.959 335.806 52.4038L335.8 52.4106L335.794 52.4173C332.934 55.7303 329.151 58.4871 324.591 60.7721L324.584 60.7759L324.576 60.7797C320.006 63.0404 314.726 64.7925 308.772 66.0713C302.827 67.3598 296.491 67.9961 289.772 67.9961C283.051 67.9961 276.688 67.3593 270.691 66.0714L270.685 66.0701C264.784 64.7907 259.534 63.0383 254.968 60.7797L254.953 60.7721L254.938 60.7644C250.432 58.4771 246.685 55.7212 243.832 52.4173L243.826 52.4106L243.82 52.4038C240.939 49.0349 239.216 45.1212 239.141 40.7302C238.715 42.0114 238.159 43.2573 237.48 44.4644C235.835 47.4572 233.539 50.1449 230.704 52.5637L230.695 52.5708ZM234.52 42.3702C235.946 39.8417 236.659 37.217 236.659 34.4961C236.659 31.7752 235.946 29.1642 234.52 26.6632C233.149 24.1347 231.175 21.7848 228.597 19.6136C226.019 17.4149 222.948 15.4223 219.383 13.6359C215.818 11.822 211.842 10.2691 207.454 8.97739C203.066 7.68565 198.35 6.69623 193.304 6.00914C188.313 5.29456 183.102 4.93727 177.673 4.93727H142.133V64.0549H177.673C183.102 64.0549 188.313 63.7114 193.304 63.0243C198.35 62.3097 203.066 61.3065 207.454 60.0148C211.842 58.7231 215.818 57.184 219.383 55.3975C222.948 53.5836 226.019 51.591 228.597 49.4198C231.175 47.2211 233.149 44.8712 234.52 42.3702ZM433.71 53.2126C435.574 51.0688 436.507 48.7739 436.507 46.3279C436.507 43.8818 435.574 41.5869 433.71 39.4432C431.9 37.272 429.377 35.3893 426.141 33.7953C422.96 32.1737 419.203 30.9095 414.87 30.0025C410.592 29.068 406.012 28.6008 401.131 28.6008H377.52C375.875 28.6008 374.339 28.4497 372.913 28.1473C371.487 27.845 370.226 27.4328 369.129 26.9106C368.087 26.3609 367.264 25.7288 366.661 25.0142C366.057 24.2721 365.756 23.4888 365.756 22.6643C365.756 21.8398 366.057 21.0703 366.661 20.3557C367.264 19.6411 368.087 19.0227 369.129 18.5005C370.226 17.9508 371.487 17.5248 372.913 17.2225C374.339 16.9202 375.875 16.769 377.52 16.769H431.653V4.93727H377.52C372.639 4.93727 368.059 5.40449 363.781 6.33894C359.503 7.27339 355.746 8.55139 352.51 10.1729C349.329 11.767 346.806 13.6359 344.942 15.7796C343.077 17.9234 342.144 20.2183 342.144 22.6643C342.144 25.1104 343.077 27.419 344.942 29.5902C346.806 31.734 349.329 33.6166 352.51 35.2382C355.746 36.8322 359.503 38.0965 363.781 39.0309C368.059 39.9654 372.639 40.4326 377.52 40.4326H401.131C402.777 40.4326 404.312 40.5838 405.738 40.8861C407.164 41.1884 408.398 41.6144 409.44 42.1641C410.537 42.6863 411.387 43.3046 411.991 44.0192C412.594 44.7338 412.896 45.5034 412.896 46.3279C412.896 47.1524 412.594 47.9219 411.991 48.6365C411.387 49.3511 410.537 49.9832 409.44 50.5329C408.398 51.0551 407.164 51.4673 405.738 51.7697C404.312 52.072 402.777 52.2231 401.131 52.2231H348.726V64.0549H401.131C406.012 64.0549 410.592 63.5877 414.87 62.6532C419.203 61.7188 422.96 60.4545 426.141 58.8605C429.377 57.2389 431.9 55.3563 433.71 53.2126ZM298.904 51.3162C296.052 51.9208 293.008 52.2231 289.772 52.2231C286.536 52.2231 283.465 51.9208 280.558 51.3162C277.706 50.6841 275.211 49.8321 273.072 48.7602C270.933 47.6883 269.232 46.4378 267.971 45.0086C266.764 43.5795 266.161 42.0541 266.161 40.4326V4.93727H242.632V40.4326C242.632 43.7032 243.866 46.7814 246.334 49.6672C248.802 52.5255 252.148 55.0265 256.371 57.1702C260.649 59.2865 265.64 60.963 271.344 62.1998C277.103 63.4365 283.245 64.0549 289.772 64.0549C296.299 64.0549 302.414 63.4365 308.118 62.1998C313.877 60.963 318.895 59.2865 323.173 57.1702C327.451 55.0265 330.824 52.5255 333.292 49.6672C335.76 46.7814 336.994 43.7032 336.994 40.4326V4.93727H313.383V40.4326C313.383 42.0541 312.753 43.5795 311.491 45.0086C310.285 46.4378 308.612 47.6883 306.473 48.7602C304.334 49.8321 301.811 50.6841 298.904 51.3162ZM207.74 30.351L207.722 30.3297C206.323 28.6726 204.233 27.0691 201.285 25.6166L201.264 25.6066L201.244 25.5963C198.369 24.1306 194.886 22.9326 190.756 22.0418L190.752 22.0409L190.748 22.04C186.713 21.1587 182.357 20.7102 177.673 20.7102H169.401V48.282H177.673C182.362 48.282 186.722 47.8464 190.763 46.9901C194.896 46.0982 198.384 44.9116 201.264 43.468C204.22 41.9872 206.317 40.3678 207.722 38.7037L207.732 38.6915L207.742 38.6794C209.133 37.0603 209.555 35.689 209.555 34.4961C209.555 33.3076 209.137 31.9568 207.758 30.372L207.74 30.351ZM177.673 52.2231C182.554 52.2231 187.134 51.7697 191.412 50.8627C195.744 49.9282 199.501 48.664 202.682 47.0699C205.918 45.4484 208.441 43.5657 210.251 41.422C212.116 39.2508 213.048 36.9422 213.048 34.4961C213.048 32.05 212.116 29.7551 210.251 27.6114C208.441 25.4677 205.918 23.5988 202.682 22.0047C199.501 20.3832 195.744 19.1052 191.412 18.1707C187.134 17.2363 182.554 16.769 177.673 16.769H165.908V52.2231H177.673ZM104.98 64.0549V4.93727H128.591V64.0549H104.98Z" fill="white"/>
</svg>
