<svg width="302" height="54" viewBox="0 0 302 54" fill="none" xmlns="http://www.w3.org/2000/svg">
<path fill-rule="evenodd" clip-rule="evenodd" d="M66.1649 0V15.8685H26.6517C25.6525 15.8685 24.7491 15.9764 23.935 16.179C23.1032 16.386 22.4217 16.6647 21.8701 16.9891C21.5872 17.1556 21.376 17.3168 21.2196 17.4612C21.3782 17.6129 21.5903 17.7826 21.8715 17.9601C22.4289 18.266 23.111 18.532 23.935 18.7371C24.7491 18.9397 25.6525 19.0475 26.6517 19.0475H42.8414C46.3198 19.0475 49.6107 19.438 52.708 20.2313C55.8115 20.9947 58.5725 22.0738 60.9624 23.5017C63.3683 24.8952 65.388 26.6184 66.9073 28.7494C68.5087 30.92 69.4931 33.5189 69.4931 36.489C69.4931 39.4624 68.5065 42.0638 66.9019 44.2359C65.3846 46.3398 63.3672 48.0615 60.9624 49.4762C58.5771 50.8793 55.8188 51.9589 52.7145 52.745C49.6153 53.5395 46.3223 53.9304 42.8414 53.9304H4.51282V38.0619H42.8414C43.8406 38.0619 44.744 37.9541 45.558 37.7514C46.4002 37.5418 47.0603 37.2723 47.5666 36.9745C47.8618 36.8008 48.0816 36.6366 48.2431 36.4929C48.0907 36.3627 47.8842 36.2148 47.6077 36.0603L47.5657 36.0368L47.5244 36.0112C47.0322 35.7065 46.387 35.4329 45.558 35.2265C44.744 35.0239 43.8406 34.9161 42.8414 34.9161H26.6517C23.1698 34.9161 19.8759 34.5249 16.7759 33.73C13.7081 32.9433 10.9571 31.865 8.54449 30.4699L8.53057 30.4618L8.51673 30.4535C6.14494 29.0342 4.1436 27.3166 2.60369 25.2384L2.59834 25.2312L2.59304 25.2239C0.989238 23.0318 0 20.4191 0 17.4414C0 14.4603 0.991681 11.8531 2.60369 9.67767C4.14764 7.59404 6.15419 5.88544 8.53067 4.48746C10.9479 3.06551 13.7037 1.97386 16.7759 1.18609C19.8759 0.391182 23.1698 0 26.6517 0H66.1649ZM52.2619 49.6298C55.2329 48.8776 57.8089 47.86 59.9901 46.5769C62.2089 45.2717 63.9389 43.7563 65.1799 42.0307C66.4585 40.3051 67.0978 38.4579 67.0978 36.489C67.0978 34.5201 66.4585 32.6728 65.1799 30.9473C63.9389 29.1996 62.2089 27.6842 59.9901 26.4011C57.8089 25.0959 55.2329 24.0782 52.2619 23.3482C49.3286 22.596 46.1884 22.2199 42.8414 22.2199H26.6517C25.5235 22.2199 24.4705 22.0982 23.4927 21.8549C22.5149 21.6116 21.65 21.2797 20.8978 20.8594C20.1833 20.4169 19.6192 19.9081 19.2055 19.3329C18.7918 18.7356 18.585 18.1051 18.585 17.4414C18.585 16.7778 18.7918 16.1583 19.2055 15.5831C19.6192 15.008 20.1833 14.5102 20.8978 14.0899C21.65 13.6474 22.5149 13.3045 23.4927 13.0612C24.4705 12.8178 25.5235 12.6962 26.6517 12.6962H63.7696V3.17238H26.6517C23.3047 3.17238 20.1645 3.54846 17.2311 4.30063C14.2978 5.0528 11.7217 6.0815 9.50294 7.38673C7.32174 8.66984 5.59182 10.1742 4.31319 11.8997C3.03456 13.6253 2.39524 15.4725 2.39524 17.4414C2.39524 19.4104 3.03456 21.2687 4.31319 23.0163C5.59182 24.7419 7.32174 26.2573 9.50294 27.5625C11.7217 28.8456 14.2978 29.8633 17.2311 30.6154C20.1645 31.3676 23.3047 31.7437 26.6517 31.7437H42.8414C43.9696 31.7437 45.0226 31.8654 46.0004 32.1087C46.9782 32.3521 47.8243 32.695 48.5389 33.1374C49.291 33.5577 49.8739 34.0555 50.2876 34.6307C50.7013 35.2059 50.9081 35.8253 50.9081 36.489C50.9081 37.1527 50.7013 37.7721 50.2876 38.3473C49.8739 38.9225 49.291 39.4313 48.5389 39.8737C47.8243 40.2941 46.9782 40.6259 46.0004 40.8693C45.0226 41.1126 43.9696 41.2343 42.8414 41.2343H6.90806V50.7581H42.8414C46.1884 50.7581 49.3286 50.382 52.2619 49.6298ZM90.568 53.9304H69.5877V0H90.568V53.9304ZM158.184 41.5141L158.178 41.5199C156.245 43.4311 153.982 45.146 151.412 46.6813L151.406 46.685L151.399 46.6887C148.819 48.2067 145.967 49.4992 142.852 50.5756C139.732 51.6541 136.394 52.4858 132.843 53.0761L132.839 53.0768L132.835 53.0775C129.309 53.6473 125.64 53.9304 121.827 53.9304H95.0626V0H121.827C125.641 0 129.312 0.294361 132.839 0.886808C136.391 1.45494 139.73 2.27568 142.852 3.3548C145.969 4.43182 148.823 5.73648 151.406 7.27879C153.98 8.79343 156.247 10.5111 158.184 12.45C160.132 14.3769 161.707 16.542 162.836 18.9743C163.301 19.936 163.682 20.9299 163.973 21.9534V0H184.897V31.7437C184.897 32.0607 184.975 32.5315 185.459 33.2139C186.062 34.0071 186.951 34.8051 188.213 35.5476C189.479 36.2924 191.008 36.9146 192.822 37.3878C194.655 37.8342 196.61 38.0619 198.692 38.0619C200.777 38.0619 202.713 37.8334 204.506 37.3878C206.362 36.9133 207.909 36.2901 209.171 35.5476C210.442 34.7997 211.299 34.0055 211.85 33.2391L211.868 33.2135L211.887 33.1886C212.42 32.4795 212.486 32.0158 212.486 31.7437V0H233.467V11.8962C233.843 11.1138 234.295 10.3736 234.811 9.67767C236.355 7.59404 238.362 5.88544 240.738 4.48746C243.155 3.06551 245.911 1.97386 248.983 1.18609C252.083 0.391182 255.377 0 258.859 0H298.372V15.8685H258.859C257.86 15.8685 256.956 15.9764 256.142 16.179C255.311 16.386 254.629 16.6647 254.077 16.9891C253.795 17.1555 253.583 17.3168 253.427 17.4612C253.586 17.6129 253.798 17.7826 254.079 17.9601C254.636 18.2661 255.318 18.532 256.142 18.7371C256.956 18.9397 257.86 19.0475 258.859 19.0475H275.049C278.527 19.0475 281.818 19.438 284.916 20.2313C288.019 20.9948 290.78 22.074 293.17 23.5021C295.576 24.8954 297.595 26.6186 299.115 28.7494C300.716 30.92 301.7 33.5189 301.7 36.489C301.7 39.4626 300.714 42.0641 299.109 44.2362C297.592 46.34 295.574 48.0616 293.17 49.4762C290.784 50.8794 288.026 51.959 284.922 52.7451C281.822 53.5395 278.53 53.9304 275.049 53.9304H236.72V38.0619H275.049C276.048 38.0619 276.951 37.9541 277.765 37.7514C278.608 37.5418 279.268 37.2723 279.774 36.9745C280.069 36.8008 280.289 36.6366 280.45 36.493C280.298 36.3627 280.092 36.2148 279.815 36.0603L279.773 36.0368L279.732 36.0112C279.24 35.7065 278.594 35.4329 277.765 35.2265C276.951 35.0239 276.048 34.9161 275.049 34.9161H258.859C255.377 34.9161 252.083 34.5249 248.983 33.73C245.915 32.9433 243.164 31.865 240.752 30.4699L240.738 30.4618L240.724 30.4535C238.352 29.0342 236.351 27.3166 234.811 25.2384L234.806 25.2312L234.8 25.2239C234.289 24.5254 233.841 23.7842 233.467 23.002V31.7437C233.467 35.3755 232.277 38.6068 230.256 41.3797L230.252 41.3852L230.248 41.3906C228.287 44.0573 225.693 46.2764 222.567 48.1156L222.561 48.1187L222.556 48.1217C219.423 49.9414 215.802 51.3518 211.72 52.3811C207.644 53.4183 203.299 53.9304 198.692 53.9304C194.083 53.9304 189.72 53.4179 185.608 52.3812L185.604 52.3802C181.558 51.3503 177.958 49.9398 174.827 48.1217L174.817 48.1156L174.806 48.1094C171.717 46.2683 169.148 44.05 167.191 41.3906L167.187 41.3852L167.183 41.3797C165.208 38.6679 164.026 35.5177 163.975 31.9832C163.683 33.0145 163.301 34.0174 162.836 34.989C161.708 37.398 160.134 39.5615 158.19 41.5084L158.184 41.5141ZM160.807 33.3033C161.784 31.2681 162.273 29.1554 162.273 26.9652C162.273 24.7751 161.784 22.6734 160.807 20.6603C159.866 18.625 158.513 16.7335 156.745 14.9858C154.978 13.216 152.872 11.6121 150.427 10.1742C147.983 8.71409 145.256 7.46416 142.248 6.4244C139.239 5.38464 136.005 4.58822 132.545 4.03516C129.123 3.45997 125.55 3.17238 121.827 3.17238H97.4579V50.7581H121.827C125.55 50.7581 129.123 50.4815 132.545 49.9285C136.005 49.3533 139.239 48.5458 142.248 47.506C145.256 46.4663 147.983 45.2274 150.427 43.7894C152.872 42.3294 154.978 40.7255 156.745 38.9778C158.513 37.208 159.866 35.3165 160.807 33.3033ZM297.387 42.0307C298.666 40.3051 299.305 38.4579 299.305 36.489C299.305 34.5201 298.666 32.6728 297.387 30.9473C296.146 29.1996 294.416 27.6842 292.197 26.4011C290.016 25.0959 287.44 24.0782 284.469 23.3482C281.536 22.596 278.396 22.2199 275.049 22.2199H258.859C257.731 22.2199 256.678 22.0982 255.7 21.8549C254.722 21.6116 253.857 21.2797 253.105 20.8594C252.391 20.4169 251.827 19.9081 251.413 19.3329C250.999 18.7356 250.792 18.1051 250.792 17.4414C250.792 16.7778 250.999 16.1583 251.413 15.5831C251.827 15.008 252.391 14.5102 253.105 14.0899C253.857 13.6474 254.722 13.3045 255.7 13.0612C256.678 12.8178 257.731 12.6962 258.859 12.6962H295.977V3.17238H258.859C255.512 3.17238 252.372 3.54846 249.438 4.30063C246.505 5.0528 243.929 6.0815 241.71 7.38673C239.529 8.66984 237.799 10.1742 236.521 11.8997C235.242 13.6253 234.603 15.4725 234.603 17.4414C234.603 19.4104 235.242 21.2687 236.521 23.0163C237.799 24.7419 239.529 26.2573 241.71 27.5625C243.929 28.8456 246.505 29.8633 249.438 30.6154C252.372 31.3676 255.512 31.7437 258.859 31.7437H275.049C276.177 31.7437 277.23 31.8654 278.208 32.1087C279.186 32.3521 280.032 32.695 280.746 33.1374C281.498 33.5577 282.081 34.0555 282.495 34.6307C282.909 35.2059 283.115 35.8253 283.115 36.489C283.115 37.1527 282.909 37.7721 282.495 38.3473C282.081 38.9225 281.498 39.4313 280.746 39.8737C280.032 40.2941 279.186 40.6259 278.208 40.8693C277.23 41.1126 276.177 41.2343 275.049 41.2343H239.115V50.7581H275.049C278.396 50.7581 281.536 50.382 284.469 49.6298C287.44 48.8776 290.016 47.86 292.197 46.5769C294.416 45.2717 296.146 43.7563 297.387 42.0307ZM204.953 40.5042C202.998 40.9909 200.911 41.2343 198.692 41.2343C196.473 41.2343 194.367 40.9909 192.374 40.5042C190.418 39.9954 188.707 39.3096 187.24 38.4468C185.774 37.5841 184.608 36.5775 183.743 35.4271C182.916 34.2767 182.502 33.0489 182.502 31.7437V3.17238H166.369V31.7437C166.369 34.3763 167.215 36.854 168.907 39.1769C170.599 41.4776 172.893 43.4908 175.789 45.2163C178.723 46.9198 182.145 48.2693 186.056 49.2648C190.005 50.2603 194.217 50.7581 198.692 50.7581C203.167 50.7581 207.36 50.2603 211.271 49.2648C215.22 48.2693 218.661 46.9198 221.594 45.2163C224.528 43.4908 226.84 41.4776 228.533 39.1769C230.225 36.854 231.071 34.3763 231.071 31.7437V3.17238H214.882V31.7437C214.882 33.0489 214.449 34.2767 213.584 35.4271C212.757 36.5775 211.61 37.5841 210.143 38.4468C208.676 39.3096 206.946 39.9954 204.953 40.5042ZM142.444 23.6287L142.431 23.6116C141.472 22.2777 140.039 20.987 138.017 19.8178L138.003 19.8098L137.99 19.8015C136.018 18.6217 133.63 17.6574 130.798 16.9404L130.795 16.9397L130.792 16.9389C128.026 16.2295 125.039 15.8685 121.827 15.8685H116.156V38.0619H121.827C125.042 38.0619 128.032 37.7113 130.803 37.0221C133.637 36.3041 136.028 35.349 138.004 34.187C140.03 32.995 141.468 31.6915 142.431 30.3521L142.438 30.3422L142.445 30.3325C143.399 29.0293 143.688 27.9254 143.688 26.9652C143.688 26.0085 143.401 24.9212 142.456 23.6456L142.444 23.6287ZM121.827 41.2343C125.174 41.2343 128.314 40.8693 131.248 40.1392C134.219 39.387 136.795 38.3694 138.976 37.0863C141.195 35.7811 142.925 34.2657 144.166 32.5401C145.444 30.7924 146.084 28.9341 146.084 26.9652C146.084 24.9963 145.444 23.1491 144.166 21.4235C142.925 19.6979 141.195 18.1936 138.976 16.9105C136.795 15.6053 134.219 14.5766 131.248 13.8244C128.314 13.0722 125.174 12.6962 121.827 12.6962H113.76V41.2343H121.827ZM71.983 50.7581V3.17238H88.1727V50.7581H71.983Z" fill="white"/>
</svg>
