<svg width="22" height="17" viewBox="0 0 22 17" fill="none" xmlns="http://www.w3.org/2000/svg">
<path d="M18.6361 1.42375C17.212 0.758625 15.6893 0.275242 14.0973 0C13.9018 0.352851 13.6734 0.827443 13.5159 1.20498C11.8236 0.95093 10.1469 0.95093 8.48573 1.20498C8.32828 0.827443 8.09468 0.352851 7.89742 0C6.30374 0.275242 4.77928 0.760401 3.35518 1.42727C0.482756 5.76019 -0.29591 9.98549 0.0934236 14.1508C1.99856 15.571 3.84487 16.4337 5.66003 16.9983C6.1082 16.3825 6.50791 15.728 6.85225 15.0382C6.19644 14.7895 5.56832 14.4825 4.97482 14.1261C5.13227 14.0097 5.28629 13.8879 5.43508 13.7627C9.05501 15.4528 12.9882 15.4528 16.5648 13.7627C16.7154 13.8879 16.8694 14.0097 17.0251 14.1261C16.4299 14.4842 15.8 14.7912 15.1442 15.04C15.4885 15.728 15.8865 16.3843 16.3364 17C18.1533 16.4355 20.0014 15.5728 21.9065 14.1508C22.3633 9.32214 21.1261 5.13565 18.6361 1.42375ZM7.34541 11.5892C6.25875 11.5892 5.36759 10.5765 5.36759 9.34331C5.36759 8.11012 6.23972 7.0957 7.34541 7.0957C8.45114 7.0957 9.34226 8.10835 9.32323 9.34331C9.32495 10.5765 8.45114 11.5892 7.34541 11.5892ZM14.6545 11.5892C13.5678 11.5892 12.6767 10.5765 12.6767 9.34331C12.6767 8.11012 13.5488 7.0957 14.6545 7.0957C15.7602 7.0957 16.6514 8.10835 16.6323 9.34331C16.6323 10.5765 15.7602 11.5892 14.6545 11.5892Z" fill="#ffffff"/>
</svg>
