<svg width="18" height="16" viewBox="0 0 18 16" fill="none" xmlns="http://www.w3.org/2000/svg">
<path d="M6.7705 15.0283C6.23419 15.0283 6.32537 14.8137 6.14039 14.2725L4.56348 8.77254L16.7021 1.14062" fill="#B6A8A8"/>
<path d="M6.76953 15.0308C7.18335 15.0308 7.36612 14.8303 7.59716 14.5923L9.80418 12.3179L7.0512 10.5586" fill="#B6A8A8"/>
<path d="M7.05161 10.559L13.7223 15.7821C14.4836 16.2272 15.0329 15.9967 15.2226 15.0332L17.9379 1.47253C18.2158 0.291351 17.513 -0.244566 16.7847 0.105841L0.840369 6.62148C-0.247967 7.08416 -0.241484 7.72767 0.642013 8.01434L4.73369 9.36787L14.2064 3.03438C14.6536 2.74698 15.0641 2.90135 14.7272 3.21828" fill="white"/>
</svg>
