<svg width="368" height="372" viewBox="0 0 368 372" fill="none" xmlns="http://www.w3.org/2000/svg">
<rect x="4" y="4" width="360" height="364" rx="4" stroke="#DBDBDB" stroke-width="7"/>
<path d="M184.52 119.863L242.557 153.008V219.625L184.684 252.974L126.688 219.91V153.334L184.52 119.863ZM184.52 71L163.238 83.2158L105.283 116.687L84 128.903V244.423L105.283 256.639L163.319 289.784L184.602 302L205.885 289.784L263.717 256.394L285 244.179V128.496L263.717 116.28L205.721 83.2158L184.439 71H184.52Z" fill="#EAEAEA"/>
<path d="M180.273 194.934C180.273 192.905 180.717 191.242 181.606 189.943C182.495 188.604 183.788 187.144 185.485 185.562C186.657 184.466 187.525 183.553 188.091 182.823C188.657 182.052 188.939 181.241 188.939 180.389C188.939 179.212 188.434 178.279 187.424 177.589C186.455 176.859 185.182 176.494 183.606 176.494C181.99 176.494 180.515 176.879 179.182 177.65C177.889 178.421 176.838 179.496 176.03 180.876L167 176.007C168.657 173.167 171 170.956 174.03 169.373C177.061 167.791 180.717 167 185 167C189.808 167 193.667 168.014 196.576 170.043C199.525 172.031 201 174.83 201 178.441C201 180.105 200.717 181.586 200.152 182.884C199.586 184.142 198.899 185.217 198.091 186.109C197.323 186.961 196.313 187.935 195.061 189.03C193.687 190.207 192.677 191.221 192.03 192.073C191.384 192.885 191.061 193.838 191.061 194.934H180.273ZM185.667 211C183.687 211 182.051 210.391 180.758 209.174C179.465 207.917 178.818 206.395 178.818 204.61C178.818 202.784 179.444 201.283 180.697 200.107C181.99 198.93 183.646 198.342 185.667 198.342C187.687 198.342 189.343 198.93 190.636 200.107C191.929 201.283 192.576 202.784 192.576 204.61C192.576 206.395 191.929 207.917 190.636 209.174C189.343 210.391 187.687 211 185.667 211Z" fill="#DBDBDB"/>
</svg>
